<svg id="Layer_1" data-name="Layer 1" xmlns="http://www.w3.org/2000/svg" viewBox="0 0 341.48 152.43"><defs><style>.cls-1{fill:#fff;}</style></defs><title>b</title><path class="cls-1" d="M96.1,74.8h7.39a7,7,0,0,1,7,7v47.65H96.1Z"/><path class="cls-1" d="M156.58,126.14v-3.49a15.71,15.71,0,0,1-10,7.19,20.46,20.46,0,0,1-12.42-1,23.05,23.05,0,0,1-10.58-9.14q-4.42-6.67-4.42-17.56,0-12.73,5.85-20.64t18.79-7.91a33.49,33.49,0,0,1,18.28,5.34q8.42,5.34,8.42,19.72v29q0,14.37-8.42,19.61a34,34,0,0,1-18.28,5.24q-18.9,0-23.41-17.66h15A11.44,11.44,0,0,0,147.24,140a11.16,11.16,0,0,0,6.16-4Q156.17,132.71,156.58,126.14Zm-23.41-23.62q0,14.17,8.21,15.71t12.12-3.8q1.85-2.26,2.67-7.09a29.89,29.89,0,0,0,.1-9.55,19.1,19.1,0,0,0-3.39-8.42,9,9,0,0,0-7.8-3.7q-7,0-9.45,5.13A26.74,26.74,0,0,0,133.17,102.52Z"/><path class="cls-1" d="M178.39,129.43V73.16q0-7.39,3.9-11.09,3.7-3.49,12.12-3.49a20.78,20.78,0,0,1,3.29.21,22.49,22.49,0,0,1,3.49.21V70.28h-3.7a7.69,7.69,0,0,0-4.11.82q-1,.82-1,3.29v3.7h8.83v3.08a6.84,6.84,0,0,1-6.78,7h-2.05v41.28Z"/><path class="cls-1" d="M212.36,124.5a20.31,20.31,0,0,1-6.16-10,45.86,45.86,0,0,1-1.85-13,41.25,41.25,0,0,1,1.54-11.09,22.85,22.85,0,0,1,4.83-9.24,21.32,21.32,0,0,1,13.76-7.29,31.66,31.66,0,0,1,15.2,1.33,20.94,20.94,0,0,1,11.5,10.68,34.09,34.09,0,0,1,3.49,15.81,39.12,39.12,0,0,1-1.44,11.3,29.05,29.05,0,0,1-3.7,8A20.53,20.53,0,0,1,237,129.43a28,28,0,0,1-13.66.31A23.88,23.88,0,0,1,212.36,124.5Zm9.86-36.14q-4.31,4.72-3.9,14.07t3.49,13a9.23,9.23,0,0,0,4.31,2.77,9.81,9.81,0,0,0,6.26.21,10.5,10.5,0,0,0,5.65-4.62q2.47-3.7,2.67-11.91,0-7.39-2.36-11.09a10.69,10.69,0,0,0-5.44-4.72,10,10,0,0,0-6.16-.1A10.69,10.69,0,0,0,222.22,88.35Z"/><path class="cls-1" d="M267.82,124.5a20.31,20.31,0,0,1-6.16-10,45.83,45.83,0,0,1-1.85-13,41.26,41.26,0,0,1,1.54-11.09,22.87,22.87,0,0,1,4.83-9.24,21.32,21.32,0,0,1,13.76-7.29,31.66,31.66,0,0,1,15.2,1.33,20.94,20.94,0,0,1,11.5,10.68,34.1,34.1,0,0,1,3.49,15.81,39.12,39.12,0,0,1-1.44,11.3,29.05,29.05,0,0,1-3.7,8,20.53,20.53,0,0,1-12.53,8.42,28,28,0,0,1-13.66.31A23.88,23.88,0,0,1,267.82,124.5Zm9.86-36.14q-4.31,4.72-3.9,14.07t3.49,13a9.22,9.22,0,0,0,4.31,2.77,9.81,9.81,0,0,0,6.26.21,10.5,10.5,0,0,0,5.65-4.62q2.47-3.7,2.67-11.91,0-7.39-2.36-11.09a10.69,10.69,0,0,0-5.44-4.72,10,10,0,0,0-6.16-.1A10.69,10.69,0,0,0,277.67,88.35Z"/><path class="cls-1" d="M338.5,129.43a107,107,0,0,1-14.68-.21q-7.91-.62-7.91-10.06V58.78h7.39A6.5,6.5,0,0,1,328,60.83a6.74,6.74,0,0,1,2.05,4.93V75h8.42v2.87a6.64,6.64,0,0,1-2.05,5,6.92,6.92,0,0,1-4.93,2h-1.44v30.39q0,3.49,4.11,3.49h4.31Z"/><path class="cls-1" d="M110.92,20c3.18-6.6,6.12-14-5.72-16.62C98.45,1.95,91.14,4.11,88,10.71s-.61,14,5.72,16.62S107.74,26.64,110.92,20Z"/><path class="cls-1" d="M82,11.23c.63-5.28.11-9.34-7.9-10.75C69.27-.37,64.84,1,63.91,8.83a9.53,9.53,0,0,0,7.9,10.75A9.23,9.23,0,0,0,82,11.23Z"/><path class="cls-1" d="M59.29,11.88c.57-4.79.08-8.49-7.18-9.77-4.51-.79-8.67,2.8-9.24,7.59A8.66,8.66,0,0,0,50,19.47,8.38,8.38,0,0,0,59.29,11.88Z"/><path class="cls-1" d="M38.38,16.46c-.16-4.54-.35-8.43-8-8.33a7.6,7.6,0,0,0-7.45,8.1,8.47,8.47,0,0,0,8,8.33A7.53,7.53,0,0,0,38.38,16.46Z"/><path class="cls-1" d="M19.51,26.41c-.77-3.67-2-7.52-7.6-5.88-3.25.95-5.58,3.74-4.8,7.41s4.18,6.3,7.61,5.88S20.28,30.08,19.51,26.41Z"/><path class="cls-1" d="M74.91,26.27S112,31.7,94.74,69.5c0,0,1.91-13.36-3.41-8.95C85.45,65.41,87,75.32,87.11,83.73l-5.76-4.45s.25,8.06,1,16.6c0,0-17.06-13.25-13.46-10.78,17.07,11.69,40.47,81.26-23.62,62-7.34-2.2-4,4.91-4,4.91-17.52-13.5-20.41-41.2-20.41-41.2s-3.34,3.71-4.82,12.07c-1.4,7.91-8.88-43.43-3.94-53.56,0,0-5.91,14.4-8,24S-3.87,8.1,74.91,26.27ZM64.18,36.85C40,26.19,33.42,45.83,29.84,56.21c-8.32,24.19-4.54,89.43,27.68,81.55C105.75,126,50.8,84.55,50.8,84.55S119,61,64.18,36.85Z"/></svg>
