<svg xmlns="http://www.w3.org/2000/svg" viewBox="0 0 332.5 152.86"><defs><style>.cls-1{fill:#fff;}</style></defs><title>Asset 2</title><g id="Layer_2" data-name="Layer 2"><g id="Layer_1-2" data-name="Layer 1"><path class="cls-1" d="M76.4,15.8C76.33,23.85,77,35.36,67,30.71l-.19-.08c-.78-.41-3.35-2.56,4.21-11.21C84,4.61,48.94-7.83,52,13.34c1,7.17,5.3,14.17-2.73,16-2.32-.16-4.32-2.6-3.27-11.58C48.05,0,15.58,7,30.34,24.53c4.11,4.88,9.37,7.21,4.68,10.9q-.67.41-1.33.85c-2.77.76-5.75-.15-6.51-7-2.22-20-26.52.13-11.5,7,6.6,3,8.25,6.67,5.42,11.38-1.62,1.67-4.53,3.54-6.32-2.22-5.55-17.84-23.3,2.32-9.87,6.95,2.61.9,12.26,1.17,10.48,6-.85,1.68-1.64,3.37-2.36,5-4.32,6.76-9,18.8-9.29,29.19,0,1.51,1.87-2.78,5.22-3.69v0c-2.61,8.34-4.39,21.39-2.37,31.11.31,1.5,1.86-4.77,5.37-7.76-.42,5.89.46,14.65,2.34,23.55.34,1.63,0-8,2.32-12.39,3,9.07,8.48,18.06,18.64,23,0,0-3.05-6.47,3.62-4.47,19.44,5.83,30.18,2.32,35.23-5.3,1.57,1.8,2.16,3.78,2.53,2.69,3.53-10.23,1.26-21.77.14-26.13-2.47-12.32-9.22-24.58-16-29.27a11.07,11.07,0,0,1,1.37.44l1.49.7c5,2.71,8.47,8.1,8.29,5.79-.44-5.63-.89-9.52-1.23-12.22l4.59,5.62c-1-9.22-2.48-12.95,3.05-17.14,3-2.25,2.31,6.56,2.31,6.56a50.53,50.53,0,0,0,4-12.26c1.74,2.31,2.77,3.54,2.61,2.66-.9-4.87-1.78-8.65-2-12.25l0,0S84.6,47.22,87.93,40c.57-1.15,1.25-2.36,2.05-3.65a.85.85,0,0,1-.24.23,54.08,54.08,0,0,1,10.07-12C123.57,2.78,76.67-13.36,76.4,15.8ZM44,84.54S91,120,49.76,130.08C22.19,136.82,19,81,26.08,60.3c3.06-8.89,8.72-25.69,29.38-16.57C102.34,64.43,44,84.54,44,84.54Z"/><path class="cls-1" d="M151.37,127.48v-3.37a15.17,15.17,0,0,1-9.62,6.94,19.75,19.75,0,0,1-12-1,22.25,22.25,0,0,1-10.21-8.82q-4.27-6.45-4.26-17,0-12.3,5.65-19.93t18.14-7.63a32.33,32.33,0,0,1,17.65,5.16q8.13,5.16,8.13,19v28q0,13.87-8.13,18.94a32.79,32.79,0,0,1-17.65,5.06q-18.25,0-22.61-17.05H131a11,11,0,0,0,11.4,5.06A10.78,10.78,0,0,0,148.3,137Q151,133.82,151.37,127.48Zm-22.61-22.81q0,13.68,7.93,15.17t11.7-3.67q1.78-2.18,2.58-6.84a28.87,28.87,0,0,0,.1-9.22A18.45,18.45,0,0,0,147.81,92a8.72,8.72,0,0,0-7.54-3.57q-6.74,0-9.12,5A25.82,25.82,0,0,0,128.77,104.68Z"/><path class="cls-1" d="M174.62,130.65V76.32q0-7.14,3.77-10.71,3.57-3.37,11.7-3.37a20,20,0,0,1,3.17.2,21.72,21.72,0,0,1,3.37.2V73.54h-3.57a7.43,7.43,0,0,0-4,.79q-1,.79-1,3.17v3.57h8.53v3a6.6,6.6,0,0,1-6.54,6.74h-2v39.86Z"/><path class="cls-1" d="M207.42,125.9a19.62,19.62,0,0,1-6-9.62,44.33,44.33,0,0,1-1.78-12.59A39.84,39.84,0,0,1,201.17,93a22.07,22.07,0,0,1,4.66-8.92,20.59,20.59,0,0,1,13.29-7,30.57,30.57,0,0,1,14.67,1.29,20.22,20.22,0,0,1,11.1,10.31,32.9,32.9,0,0,1,3.37,15.27,37.77,37.77,0,0,1-1.39,10.91,28.08,28.08,0,0,1-3.57,7.73,19.83,19.83,0,0,1-12.1,8.13A27,27,0,0,1,218,131,23.07,23.07,0,0,1,207.42,125.9ZM216.94,91q-4.16,4.56-3.77,13.58t3.37,12.59a8.91,8.91,0,0,0,4.16,2.68,9.49,9.49,0,0,0,6,.2,10.12,10.12,0,0,0,5.45-4.46q2.38-3.57,2.58-11.5,0-7.14-2.28-10.71a10.31,10.31,0,0,0-5.25-4.56,9.63,9.63,0,0,0-6-.1A10.32,10.32,0,0,0,216.94,91Z"/><path class="cls-1" d="M263.16,125.9a19.62,19.62,0,0,1-5.95-9.62,44.22,44.22,0,0,1-1.79-12.59A39.84,39.84,0,0,1,256.91,93a22.07,22.07,0,0,1,4.66-8.92,20.59,20.59,0,0,1,13.29-7,30.57,30.57,0,0,1,14.68,1.29,20.22,20.22,0,0,1,11.1,10.31A32.93,32.93,0,0,1,304,103.88a37.81,37.81,0,0,1-1.39,10.91,28.08,28.08,0,0,1-3.57,7.73,19.83,19.83,0,0,1-12.1,8.13,27,27,0,0,1-13.19.3A23.08,23.08,0,0,1,263.16,125.9ZM272.68,91q-4.16,4.56-3.77,13.58t3.37,12.59a8.91,8.91,0,0,0,4.16,2.68,9.49,9.49,0,0,0,6,.2,10.13,10.13,0,0,0,5.45-4.46q2.38-3.57,2.58-11.5,0-7.14-2.28-10.71A10.31,10.31,0,0,0,283,88.81a9.63,9.63,0,0,0-5.95-.1A10.33,10.33,0,0,0,272.68,91Z"/><path class="cls-1" d="M332.5,130.65a103.69,103.69,0,0,1-14.18-.2q-7.64-.6-7.64-9.72V62.44h7.14a6.28,6.28,0,0,1,4.56,2,6.5,6.5,0,0,1,2,4.76V78.1h8.13v2.78a6.41,6.41,0,0,1-2,4.86,6.68,6.68,0,0,1-4.76,1.88h-1.39V117q0,3.37,4,3.37h4.16Z"/><path class="cls-1" d="M93,77.91h7.14a6.77,6.77,0,0,1,6.74,6.74v46H93Z"/><path class="cls-1" d="M93.24,62.4h7.22a6.86,6.86,0,0,1,6.81,6.81v4.21h-14Z"/></g></g></svg>
