<svg id="Layer_1" data-name="Layer 1" xmlns="http://www.w3.org/2000/svg" viewBox="0 0 134.9 185.44"><defs><style>.cls-1{fill:#fff;}</style></defs><title>Untitled-4</title><path class="cls-1" d="M279.17,190.6c-.09,10.2.75,24.77-11.88,18.89l-.24-.1c-1-.52-4.25-3.24,5.33-14.19,16.39-18.75-28-34.51-24.14-7.71,1.3,9.08,6.71,17.94-3.46,20.3-2.93-.2-5.47-3.29-4.14-14.67,2.63-22.52-38.49-13.69-19.79,8.54,5.2,6.18,11.87,9.13,5.93,13.8q-.85.52-1.68,1.07c-3.51,1-7.28-.19-8.25-8.84-2.82-25.27-33.58.16-14.56,8.83,8.35,3.8,10.45,8.45,6.86,14.41-2,2.12-5.74,4.48-8-2.81-7-22.59-29.5,2.93-12.5,8.79,3.31,1.14,15.52,1.48,13.27,7.64-1.08,2.13-2.07,4.27-3,6.39-5.47,8.56-11.41,23.8-11.77,37-.05,1.92,2.37-3.52,6.61-4.67v0c-3.31,10.56-5.56,27.09-3,39.39.39,1.9,2.35-6,6.8-9.83-.53,7.45.59,18.55,3,29.82.43,2.06,0-10.13,2.93-15.68,3.75,11.49,10.74,22.87,23.6,29.08,0,0-3.87-8.19,4.59-5.66,24.61,7.38,38.22,2.94,44.6-6.72,2,2.28,2.73,4.79,3.21,3.41,4.47-12.95,1.6-27.56.18-33.09-3.13-15.59-11.67-31.13-20.2-37.06a14,14,0,0,1,1.73.56l1.89.89c6.32,3.43,10.73,10.26,10.5,7.33-.56-7.13-1.12-12.05-1.56-15.47l5.81,7.12c-1.24-11.67-3.14-16.4,3.86-21.7,3.76-2.85,2.92,8.31,2.92,8.31a64,64,0,0,0,5-15.52c2.21,2.92,3.51,4.48,3.3,3.37-1.14-6.17-2.26-11-2.49-15.51l.05.05s-1-6,3.27-15c.73-1.46,1.58-3,2.6-4.62a1.08,1.08,0,0,1-.3.29,68.48,68.48,0,0,1,12.75-15.25C338.9,174.12,279.5,153.68,279.17,190.6Zm-41,87.05s59.53,44.9,7.29,57.66c-34.92,8.53-39-62.15-30-88.36,3.87-11.26,11-32.53,37.2-21C312,252.18,238.15,277.65,238.15,277.65Z" transform="translate(-182.42 -170.6)"/></svg>
