<?xml version="1.0" encoding="utf-8"?>
<!-- Generator: Adobe Illustrator 20.1.0, SVG Export Plug-In . SVG Version: 6.00 Build 0)  -->
<!DOCTYPE svg PUBLIC "-//W3C//DTD SVG 1.1//EN" "http://www.w3.org/Graphics/SVG/1.1/DTD/svg11.dtd">
<svg version="1.1" id="Layer_1" xmlns="http://www.w3.org/2000/svg" xmlns:xlink="http://www.w3.org/1999/xlink" x="0px" y="0px"
	 viewBox="0 0 128.7 178" style="enable-background:new 0 0 128.7 178;" xml:space="preserve">
<style type="text/css">
	.st0{fill:#FFFFFF;}
</style>
<g>
	<path class="st0" d="M124.4,23.2c3.5-7.4,6.8-15.7-6.4-18.6c-7.5-1.6-15.7,0.8-19.2,8.1c-3.5,7.4-0.7,15.7,6.4,18.5
		C112.3,34.3,120.9,30.6,124.4,23.2z"/>
	<path class="st0" d="M89.7,13.9c0.7-6.1,0.1-10.8-9.1-12.4c-5.5-1-10.6,0.6-11.7,9.6c-0.7,6.1,3.4,11.6,9.1,12.4
		C83.7,24.3,88.9,20,89.7,13.9z"/>
	<path class="st0" d="M64.7,12.4c0.7-5.5,0.1-9.8-8.3-11.3c-5.2-0.9-10,3.2-10.6,8.7c-0.7,5.5,3,10.6,8.3,11.3
		C59.2,21.8,64,17.9,64.7,12.4z"/>
	<path class="st0" d="M40.6,15.4c-0.2-5.2-0.4-9.7-9.2-9.6c-4.9,0.1-8.8,4.1-8.6,9.3c0.2,5.2,4.3,9.5,9.2,9.6
		C36.9,24.8,40.8,20.6,40.6,15.4z"/>
	<path class="st0" d="M17.7,28c-0.9-4.2-2.3-8.7-8.8-6.8c-3.7,1.1-6.4,4.3-5.5,8.5c0.9,4.2,4.8,7.3,8.8,6.8
		C16.1,36,18.6,32.2,17.7,28z"/>
	<path class="st0" d="M96.4,89.9"/>
	<path class="st0" d="M82.6,31.3c0,0,42.8,6.3,22.8,49.8c0,0,2.2-15.4-3.9-10.3c-6.8,5.6-5,17-4.9,26.7l-6.6-5.1
		c0,0,0.3,9.3,1.2,19.1c0,0-19.6-15.3-15.5-12.4c19.7,13.5,46.6,93.6-27.2,71.5c-8.5-2.5-4.6,5.7-4.6,5.7
		c-20.2-15.6-23.5-47.4-23.5-47.4s-3.8,4.3-5.6,13.9c-1.6,9.1-10.2-50-4.5-61.7c0,0-6.8,16.6-9.2,27.6
		C-1.2,119.5-8.1,10.3,82.6,31.3z M70.3,43.4C42.5,31.2,34.9,53.8,30.7,65.7c-9.6,27.9-5.2,103,31.9,93.9
		c55.5-13.6-7.7-61.3-7.7-61.3S133.4,71.3,70.3,43.4z"/>
</g>
</svg>
