<?xml version="1.0" encoding="utf-8"?>
<!-- Generator: Adobe Illustrator 20.1.0, SVG Export Plug-In . SVG Version: 6.00 Build 0)  -->
<!DOCTYPE svg PUBLIC "-//W3C//DTD SVG 1.1//EN" "http://www.w3.org/Graphics/SVG/1.1/DTD/svg11.dtd">
<svg version="1.1" id="Layer_1" xmlns="http://www.w3.org/2000/svg" xmlns:xlink="http://www.w3.org/1999/xlink" x="0px" y="0px"
	 viewBox="0 0 332.5 147.4" style="enable-background:new 0 0 332.5 147.4;" xml:space="preserve">
<style type="text/css">
	.st0{fill:#2A7D9A;}
</style>
<path class="st0" d="M76.4,16.8C76.3,24.9,77,36.4,67,31.7l-0.2-0.1c-0.8-0.4-3.3-2.6,4.2-11.2C84,5.6,48.9-6.8,52,14.3
	c1,7.2,5.3,14.2-2.7,16C47,30.2,45,27.7,46,18.8C48,1,15.6,8,30.3,25.5c4.1,4.9,9.4,7.2,4.7,10.9c-0.4,0.3-0.9,0.6-1.3,0.8
	c-2.8,0.8-5.8-0.2-6.5-7c-2.2-20-26.5,0.1-11.5,7c6.6,3,8.2,6.7,5.4,11.4c-1.6,1.7-4.5,3.5-6.3-2.2c-5.6-17.8-23.3,2.3-9.9,7
	c2.6,0.9,12.3,1.2,10.5,6c-0.9,1.7-1.6,3.4-2.4,5c-4.3,6.8-9,18.8-9.3,29.2c0,1.5,1.9-2.8,5.2-3.7l0,0c-2.6,8.3-4.4,21.4-2.4,31.1
	c0.3,1.5,1.9-4.8,5.4-7.8c-0.4,5.9,0.5,14.7,2.3,23.5c0.3,1.6,0-8,2.3-12.4c3,9.1,8.5,18.1,18.6,23c0,0-3-6.5,3.6-4.5
	c19.4,5.8,30.2,2.3,35.2-5.3c1.6,1.8,2.2,3.8,2.5,2.7c3.5-10.2,1.3-21.8,0.1-26.1c-2.5-12.3-9.2-24.6-16-29.3
	c0.5,0.1,0.9,0.3,1.4,0.4l1.5,0.7c5,2.7,8.5,8.1,8.3,5.8c-0.4-5.6-0.9-9.5-1.2-12.2l4.6,5.6c-1-9.2-2.5-12.9,3.1-17.1
	c3-2.2,2.3,6.6,2.3,6.6c1.9-3.9,3.2-8,4-12.3c1.7,2.3,2.8,3.5,2.6,2.7c-0.9-4.9-1.8-8.7-2-12.2l0,0c0,0-0.7-4.6,2.7-11.8
	c0.6-1.2,1.2-2.4,2.1-3.7c-0.1,0.1-0.1,0.2-0.2,0.2c2.8-4.5,6.1-8.5,10.1-12C123.6,3.8,76.7-12.4,76.4,16.8z M44,85.5
	c0,0,47,35.5,5.8,45.5C22.2,137.8,19,82,26.1,61.3c3.1-8.9,8.7-25.7,29.4-16.6C102.3,65.4,44,85.5,44,85.5z"/>
<path class="st0" d="M151.4,118.5v-3.4c-2.1,3.5-5.6,6-9.6,6.9c-4,0.9-8.2,0.6-12-1c-4.2-1.8-7.8-4.9-10.2-8.8
	c-2.8-4.3-4.3-10-4.3-17c0-8.2,1.9-14.8,5.7-19.9c3.8-5.1,9.8-7.6,18.1-7.6c6.3,0,12.4,1.8,17.6,5.2c5.4,3.4,8.1,9.8,8.1,19v28
	c0,9.2-2.7,15.6-8.1,18.9c-5.3,3.3-11.4,5.1-17.6,5.1c-12.2,0-19.7-5.7-22.6-17.1H131c2.4,3.9,6.9,5.9,11.4,5.1
	c2.3-0.6,4.4-1.9,5.9-3.8C150.1,125.9,151.1,122.7,151.4,118.5z M128.8,95.7c0,9.1,2.6,14.2,7.9,15.2c5.3,1,9.2-0.2,11.7-3.7
	c1.2-1.5,2-3.7,2.6-6.8c0.5-3,0.6-6.2,0.1-9.2c-0.4-2.9-1.5-5.7-3.3-8.1c-1.7-2.4-4.6-3.7-7.5-3.6c-4.5,0-7.5,1.7-9.1,5
	C129.5,88,128.7,91.8,128.8,95.7L128.8,95.7z"/>
<path class="st0" d="M174.6,121.6V67.3c0-4.8,1.3-8.3,3.8-10.7c2.4-2.2,6.3-3.4,11.7-3.4c1.1,0,2.1,0,3.2,0.2c1.1,0,2.3,0,3.4,0.2
	v10.9h-3.6c-1.4-0.1-2.8,0.2-4,0.8c-0.7,0.5-1,1.6-1,3.2v3.6h8.5v3c0.1,3.6-2.8,6.7-6.5,6.7c0,0-0.1,0-0.1,0h-2v39.9L174.6,121.6z"
	/>
<path class="st0" d="M207.4,116.9c-2.9-2.5-5-5.9-6-9.6c-1.2-4.1-1.8-8.3-1.8-12.6c0-3.6,0.5-7.2,1.5-10.7c0.8-3.3,2.4-6.3,4.7-8.9
	c3.4-3.9,8.1-6.4,13.3-7c4.9-0.8,10-0.3,14.7,1.3c4.9,1.9,8.9,5.6,11.1,10.3c2.3,4.7,3.5,10,3.4,15.3c0.1,3.7-0.4,7.4-1.4,10.9
	c-0.8,2.7-2,5.3-3.6,7.7c-2.9,4.1-7.2,7.1-12.1,8.1c-4.3,1.2-8.8,1.3-13.2,0.3C214.1,121.2,210.4,119.5,207.4,116.9z M216.9,82
	c-2.8,3-4,7.6-3.8,13.6c0.3,6,1.4,10.2,3.4,12.6c1.1,1.3,2.5,2.2,4.2,2.7c1.9,0.7,4,0.8,6,0.2c2.3-0.8,4.2-2.4,5.4-4.5
	c1.6-2.4,2.4-6.2,2.6-11.5c0-4.8-0.8-8.3-2.3-10.7c-1.2-2.1-3-3.7-5.2-4.6c-1.9-0.7-4-0.7-6-0.1C219.6,80.1,218.2,80.9,216.9,82z"/>
<path class="st0" d="M263.2,116.9c-2.9-2.6-5-5.9-6-9.6c-1.2-4.1-1.8-8.3-1.8-12.6c0-3.6,0.5-7.2,1.5-10.7c0.8-3.3,2.4-6.3,4.7-8.9
	c3.4-3.9,8.1-6.4,13.3-7c4.9-0.8,10-0.3,14.7,1.3c4.9,1.9,8.9,5.6,11.1,10.3c2.3,4.7,3.5,9.9,3.4,15.2c0.1,3.7-0.4,7.4-1.4,10.9
	c-0.8,2.7-2,5.3-3.6,7.7c-2.9,4.1-7.2,7.1-12.1,8.1c-4.3,1.2-8.8,1.3-13.2,0.3C269.8,121.2,266.2,119.5,263.2,116.9z M272.7,82
	c-2.8,3-4,7.6-3.8,13.6c0.3,6,1.4,10.2,3.4,12.6c1.1,1.3,2.5,2.2,4.2,2.7c1.9,0.7,4,0.8,6,0.2c2.3-0.8,4.2-2.4,5.5-4.5
	c1.6-2.4,2.4-6.2,2.6-11.5c0-4.8-0.8-8.3-2.3-10.7c-1.2-2.1-3-3.7-5.2-4.6c-1.9-0.7-4-0.7-6-0.1C275.4,80.1,273.9,80.9,272.7,82z"/>
<path class="st0" d="M332.5,121.6c-4.7,0.3-9.5,0.2-14.2-0.2c-5.1-0.4-7.6-3.6-7.6-9.7V53.4h7.1c1.7,0,3.4,0.7,4.6,2
	c1.3,1.2,2,3,2,4.8v8.9h8.1v2.8c0.1,1.8-0.7,3.6-2,4.9c-1.3,1.2-3,1.9-4.8,1.9h-1.4V108c0,2.2,1.3,3.4,4,3.4h4.2L332.5,121.6z"/>
<path class="st0" d="M93,68.9h7.1c3.7,0,6.7,3,6.7,6.7v46H93V68.9z"/>
<path class="st0" d="M93.2,53.4h7.2c3.7,0,6.8,3.1,6.8,6.8v4.2h-14L93.2,53.4z"/>
</svg>
