<?xml version="1.0" encoding="utf-8"?>
<!-- Generator: Adobe Illustrator 19.0.0, SVG Export Plug-In . SVG Version: 6.00 Build 0)  -->
<!DOCTYPE svg PUBLIC "-//W3C//DTD SVG 1.1//EN" "http://www.w3.org/Graphics/SVG/1.1/DTD/svg11.dtd">
<svg version="1.1" id="Layer_1" xmlns="http://www.w3.org/2000/svg" xmlns:xlink="http://www.w3.org/1999/xlink" x="0px" y="0px"
	 viewBox="0 0 438.4 562" enable-background="new 0 0 438.4 562" xml:space="preserve">
	<path id="XMLID_229_" fill="none" stroke="#FFFFFF" stroke-width="6" stroke-miterlimit="10" d="M161.9,422.6
		c2.6,7.7,1.5,15.1-2.6,16.5l-99.1,33.4c-4,1.4-9.4-3.8-12-11.6l-4.7-14c-2.6-7.7-1.5-15.1,2.6-16.5l99.1-33.4
		c4-1.4,9.4,3.8,12,11.6L161.9,422.6z"></path>
	<path id="XMLID_228_" fill="none" stroke="#FFFFFF" stroke-width="6" stroke-linejoin="round" stroke-miterlimit="10" d="
		M57.5,425.5l19.9-60c0,0,0.6-5.4,10.1-7.3l39.3-7.3"></path>
	<polyline id="XMLID_227_" fill="none" stroke="#FFFFFF" stroke-width="6" stroke-linejoin="round" stroke-miterlimit="10" points="
		152,401.9 187,333.5 131.7,337 124.1,362 150.7,373 113.4,386.3 115.3,405.6 	"></polyline>
	<path id="XMLID_226_" fill="none" stroke="#FFFFFF" stroke-width="6" stroke-linejoin="round" stroke-miterlimit="10" d="
		M132,447.6c-1.5,13.3,54,60.8,82.7,74.5c0,0-56.2-79.6-56.2-80.9C158.5,440,132,447.6,132,447.6z"></path>
	<path id="XMLID_225_" fill="none" stroke="#FFFFFF" stroke-width="6" stroke-linejoin="round" stroke-miterlimit="10" d="
		M126.2,451.9c-4.4-4.4,41.8,95.9,41.8,95.9"></path>
	<g>
    <path id="XMLID_224_" fill="#FFFFFF" d="M239.5,215.6c0,0-9.3,40.2-90.4,39.5c0,0-15.8-61.2,34.7-73.2c0,0,24.8-9.3,54.3,4.8
		c0,0,40.9-11.7,40.2,21c0.7,1-1,44.7-1,44.7S236.4,241.7,239.5,215.6z"></path>
    </g>
	<path id="XMLID_223_" fill="none" stroke="#FFFFFF" stroke-width="6" stroke-miterlimit="10" d="M276.7,424
		c-2.6,7.6-1.5,14.9,2.5,16.2l98.2,32.5c4,1.3,9.3-3.8,11.9-11.4l4.7-13.8c2.6-7.6,1.5-14.9-2.5-16.2l-98.2-32.5
		c-4-1.3-9.3,3.8-11.9,11.4L276.7,424z"></path>
	<path id="XMLID_222_" fill="none" stroke="#FFFFFF" stroke-width="6" stroke-linejoin="round" stroke-miterlimit="10" d="
		M375.1,425.5l-20-60c0,0-0.6-5.4-10.1-7.3l-39.4-7.3"></path>
	<polyline id="XMLID_221_" fill="none" stroke="#FFFFFF" stroke-width="6" stroke-linejoin="round" stroke-miterlimit="10" points="
		285.1,403.9 245.2,333.5 300.6,337 308.2,362 281.6,373 319,386.3 317.1,405.6 	"></polyline>
	<path id="XMLID_220_" fill="none" stroke="#FFFFFF" stroke-width="6" stroke-linejoin="round" stroke-miterlimit="10" d="
		M299.8,449.5c0.6,1.6-46.7,55.6-82.5,72.6c0,0,56.4-79.6,56.4-80.9C273.7,440,299.8,449.5,299.8,449.5z"></path>
	<path id="XMLID_219_" fill="none" stroke="#FFFFFF" stroke-width="6" stroke-linejoin="round" stroke-miterlimit="10" d="
		M309.1,451.1c-0.9,0.3-27.9,94.4-27.9,94.4"></path>
	<path id="XMLID_218_" fill="none" stroke="#FFFFFF" stroke-width="6" stroke-miterlimit="10" d="M274.2,265.2
		c0,42.8-26.4,77.5-58.9,77.5c-32.5,0-58.9-34.7-58.9-77.5c0-14.8,3.1-28.6,8.6-40.4c1.8-3.9,3.9-7.6,6.2-11
		c10.8-16,26.5-26.1,44.1-26.1c28.4,0,52.2,26.6,57.7,61.9C273.8,254.6,274.2,259.9,274.2,265.2z"></path>
	<circle id="XMLID_217_" fill="none" stroke="#FFFFFF" stroke-width="6" stroke-miterlimit="10" cx="189.4" cy="275.6" r="17.2"></circle>

		<line id="XMLID_216_" fill="none" stroke="#1D1D1B" stroke-width="6" stroke-miterlimit="10" x1="207.9" y1="276.9" x2="228.9" y2="276.9"/>
	<circle id="XMLID_215_" fill="none" stroke="#FFFFFF" stroke-width="6" stroke-miterlimit="10" cx="244.3" cy="275" r="17.2"/>

		<line id="XMLID_214_" fill="none" stroke="#FFFFFF" stroke-width="6" stroke-miterlimit="10" x1="207.9" y1="276.9" x2="228.9" y2="276.9"/>
	<g id="XMLID_212_">
		<path id="XMLID_213_" fill="#FFFFFF" d="M403.2,225.3c-10.2-15.9-22.3-30.3-36-42.9l-5.9,5.5c13.4,12.3,25.2,26.3,35.1,41.7
			c21.5,33.6,32.9,72.6,32.9,112.7c0,115.6-94,209.6-209.6,209.6c-115.6,0-209.6-94-209.6-209.6c0-61,26.5-117.9,70.7-157l-5.9-5.6
			C29.4,220.4,2,279.2,2,342.3c0,58.1,22.6,112.8,63.7,153.9c41.1,41.1,95.8,63.8,153.9,63.8c58.1,0,112.8-22.6,153.9-63.8
			c41.1-41.1,63.7-95.8,63.7-153.9C437.4,300.7,425.5,260.2,403.2,225.3z"/>
	</g>

		<path id="XMLID_208_" fill-rule="evenodd" clip-rule="evenodd" fill="none" stroke="#FFFFFF" stroke-width="6" stroke-linecap="round" stroke-miterlimit="10" d="
		M321.9,98.8c0,0,7.5-35.9-32.1-48.2c0,0-7.8-45.2-49.7-46.3c0,0-24.3-4.1-47.4,24.3c0,0-37.3-4.1-50.8,37c0,0-36.6,3.7-36.6,34.7
		c0,0-1,28.7,30.6,31.7c1.5,0.1,156.9,0.7,156.9,0.7"/>


			<polygon id="XMLID_207_" fill="none" stroke="#FFFFFF" stroke-width="5" stroke-linecap="round" stroke-linejoin="round" stroke-miterlimit="10" points="
			173.2,103.7 139.1,90 173.3,79.2 208.5,90.1 		"/>

			<path id="XMLID_206_" fill="none" stroke="#FFFFFF" stroke-width="5" stroke-linecap="round" stroke-linejoin="round" stroke-miterlimit="10" d="
			M153.3,95.6v13.8c0,0,2.9,6.9,19.7,7.5c0,0,17.6,0.1,21.5-7.1V95.4"/>

			<polyline id="XMLID_205_" fill="none" stroke="#FFFFFF" stroke-width="5" stroke-linecap="round" stroke-linejoin="round" stroke-miterlimit="10" points="
			173.2,89.2 200.2,92.8 200.9,93.9 201.6,109.5 		"/>


			<polygon id="XMLID_203_" fill="none" stroke="#FFFFFF" stroke-width="5" stroke-linecap="round" stroke-linejoin="round" stroke-miterlimit="10" points="
			215.7,52.4 188.4,41.3 215.8,32.7 244,41.4 		"/>

			<path id="XMLID_202_" fill="none" stroke="#FFFFFF" stroke-width="5" stroke-linecap="round" stroke-linejoin="round" stroke-miterlimit="10" d="
			M199.8,45.9v11c0,0,2.3,5.5,15.8,6c0,0,14.1,0.1,17.2-5.7V45.7"/>

			<polyline id="XMLID_201_" fill="none" stroke="#FFFFFF" stroke-width="5" stroke-linecap="round" stroke-linejoin="round" stroke-miterlimit="10" points="
			215.7,40.8 237.3,43.6 237.9,44.5 238.5,57 		"/>


			<polygon id="XMLID_199_" fill="none" stroke="#FFFFFF" stroke-width="5" stroke-linecap="round" stroke-linejoin="round" stroke-miterlimit="10" points="
			261.5,97.3 224.3,82.3 261.5,70.5 300,82.4 		"/>

			<path id="XMLID_198_" fill="none" stroke="#FFFFFF" stroke-width="5" stroke-linecap="round" stroke-linejoin="round" stroke-miterlimit="10" d="
			M239.7,88.4v15c0,0,3.1,7.5,21.5,8.1c0,0,19.2,0.1,23.5-7.7V88.2"/>

			<polyline id="XMLID_197_" fill="none" stroke="#FFFFFF" stroke-width="5" stroke-linecap="round" stroke-linejoin="round" stroke-miterlimit="10" points="
			261.5,81.5 290.9,85.4 291.7,86.6 292.5,103.6 		"/>

		<circle id="XMLID_195_" fill="none" stroke="#FFFFFF" stroke-width="5" stroke-linecap="round" stroke-linejoin="round" stroke-miterlimit="10" cx="318.9" cy="123.5" r="9.5"/>

		<circle id="XMLID_194_" fill="none" stroke="#FFFFFF" stroke-width="5" stroke-linecap="round" stroke-linejoin="round" stroke-miterlimit="10" cx="333.5" cy="157.6" r="9.5"/>

		<circle id="XMLID_193_" fill="none" stroke="#FFFFFF" stroke-width="5" stroke-linecap="round" stroke-linejoin="round" stroke-miterlimit="10" cx="303.9" cy="184.9" r="9.5"/>
	<circle id="XMLID_192_" fill="#FFFFFF" cx="238.7" cy="63.3" r="2.2"/>
	<circle id="XMLID_191_" fill="#FFFFFF" cx="201.7" cy="115" r="2.2"/>
	<circle id="XMLID_128_" fill="#FFFFFF" cx="293.2" cy="109.6" r="2.2"/>
	<g id="XMLID_231_">
		<path id="XMLID_239_" fill="#FFFFFF" d="M245.8,381.3h-59.3L168,410.6l47.4,38.7l49-39.1L245.8,381.3z M215.2,429
			c-9.6,0-17.4-7.8-17.4-17.4c0-9.6,7.8-17.4,17.4-17.4c9.6,0,17.4,7.8,17.4,17.4C232.6,421.2,224.8,429,215.2,429z"/>
		<path id="XMLID_240_" fill="none" stroke="#FFFFFF" stroke-width="4" stroke-miterlimit="10" d="M215.3,403.1
			c-4.7,0-8.5,3.7-8.6,8.4c-0.1,4.7,3.7,8.5,8.4,8.6c4.7,0,8.5-3.7,8.5-8.4C223.7,407,220,403.2,215.3,403.1z"/>
	</g>
</svg>
