<svg xmlns="http://www.w3.org/2000/svg" viewBox="0 0 333.6 146.32"><title>logo</title><path d="M78.4,18.8c-.1,8.1.6,19.6-9.4,14.9l-.2-.1C68,33.2,65.5,31,73,22.4,86,7.6,50.9-4.8,54,16.3c1,7.2,5.3,14.2-2.7,16C49,32.2,47,29.7,48,20.8,50,3,17.6,10,32.3,27.5c4.1,4.9,9.4,7.2,4.7,10.9a9.13,9.13,0,0,1-1.3.8c-2.8.8-5.8-.2-6.5-7-2.2-20-26.5.1-11.5,7,6.6,3,8.2,6.7,5.4,11.4-1.6,1.7-4.5,3.5-6.3-2.2-5.6-17.8-23.3,2.3-9.9,7,2.6.9,12.3,1.2,10.5,6-.9,1.7-1.6,3.4-2.4,5-4.3,6.8-9,18.8-9.3,29.2,0,1.5,1.9-2.8,5.2-3.7h0c-2.6,8.3-4.4,21.4-2.4,31.1.3,1.5,1.9-4.8,5.4-7.8-.4,5.9.5,14.7,2.3,23.5.3,1.6,0-8,2.3-12.4,3,9.1,8.5,18.1,18.6,23,0,0-3-6.5,3.6-4.5,19.4,5.8,30.2,2.3,35.2-5.3,1.6,1.8,2.2,3.8,2.5,2.7,3.5-10.2,1.3-21.8.1-26.1-2.5-12.3-9.2-24.6-16-29.3.5.1.9.3,1.4.4l1.5.7c5,2.7,8.5,8.1,8.3,5.8-.4-5.6-.9-9.5-1.2-12.2l4.6,5.6c-1-9.2-2.5-12.9,3.1-17.1,3-2.2,2.3,6.6,2.3,6.6a47.89,47.89,0,0,0,4-12.3c1.7,2.3,2.8,3.5,2.6,2.7-.9-4.9-1.8-8.7-2-12.2h0s-.7-4.6,2.7-11.8a28.51,28.51,0,0,1,2.1-3.7c-.1.1-.1.2-.2.2a52.79,52.79,0,0,1,10.1-12C125.6,5.8,78.7-10.4,78.4,18.8ZM46,87.5S93,123,51.8,133C24.2,139.8,21,84,28.1,63.3c3.1-8.9,8.7-25.7,29.4-16.6C104.3,67.4,46,87.5,46,87.5Z" transform="translate(-1.99 -2.98)" style="fill:#fff"/><path d="M207.6,117.23a19.25,19.25,0,0,1-5.84-9.44A43.51,43.51,0,0,1,200,95.44a39.08,39.08,0,0,1,1.46-10.51A21.66,21.66,0,0,1,206,76.17a20.2,20.2,0,0,1,13-6.91,30,30,0,0,1,14.4,1.26,19.85,19.85,0,0,1,10.9,10.12,32.3,32.3,0,0,1,3.31,15,37.06,37.06,0,0,1-1.36,10.71,27.56,27.56,0,0,1-3.5,7.59,19.46,19.46,0,0,1-11.87,8,26.49,26.49,0,0,1-12.94.29A22.64,22.64,0,0,1,207.6,117.23ZM216.94,83q-4.09,4.48-3.7,13.33t3.31,12.36a8.75,8.75,0,0,0,4.09,2.63,9.31,9.31,0,0,0,5.93.19,9.93,9.93,0,0,0,5.35-4.38q2.34-3.5,2.53-11.29,0-7-2.24-10.51a10.12,10.12,0,0,0-5.16-4.48,9.45,9.45,0,0,0-5.84-.1A10.11,10.11,0,0,0,216.94,83Z" transform="translate(-1.99 -2.98)" style="fill:#fff"/><path d="M262.3,117.23a19.26,19.26,0,0,1-5.84-9.44,43.4,43.4,0,0,1-1.75-12.36,39.08,39.08,0,0,1,1.46-10.51,21.66,21.66,0,0,1,4.57-8.76,20.21,20.21,0,0,1,13-6.91,30,30,0,0,1,14.4,1.26,19.85,19.85,0,0,1,10.9,10.12,32.32,32.32,0,0,1,3.31,15A37.1,37.1,0,0,1,301,106.34a27.55,27.55,0,0,1-3.5,7.59,19.46,19.46,0,0,1-11.87,8,26.5,26.5,0,0,1-12.94.29A22.65,22.65,0,0,1,262.3,117.23ZM271.64,83q-4.09,4.48-3.7,13.33t3.31,12.36a8.75,8.75,0,0,0,4.09,2.63,9.31,9.31,0,0,0,5.94.19,10,10,0,0,0,5.35-4.38q2.34-3.5,2.53-11.29,0-7-2.24-10.51a10.12,10.12,0,0,0-5.16-4.48,9.45,9.45,0,0,0-5.84-.1A10.12,10.12,0,0,0,271.64,83Z" transform="translate(-1.99 -2.98)" style="fill:#fff"/><path d="M162.52,96a32.29,32.29,0,0,0-3.31-15,19.84,19.84,0,0,0-10.9-10.12,30,30,0,0,0-14.4-1.27,20.21,20.21,0,0,0-13,6.91,21.68,21.68,0,0,0-4.57,8.76,39.11,39.11,0,0,0-1.46,10.51,43.51,43.51,0,0,0,1.75,12.36,19.25,19.25,0,0,0,5.84,9.44,22.64,22.64,0,0,0,10.41,5,26.49,26.49,0,0,0,12.94-.29,19.51,19.51,0,0,0,3.28-1q-.58,5.17-2.89,7.93a10.58,10.58,0,0,1-5.84,3.8,10.84,10.84,0,0,1-11.19-5H114.93q4.28,16.73,22.19,16.74a32.18,32.18,0,0,0,17.32-5q8-5,8-18.58V99.12C162.48,98.11,162.52,97.07,162.52,96ZM141.4,111.84a9.31,9.31,0,0,1-5.94-.19,8.75,8.75,0,0,1-4.09-2.63q-2.92-3.5-3.31-12.36t3.7-13.33A10.13,10.13,0,0,1,136,81.09a9.46,9.46,0,0,1,5.84.1A10.12,10.12,0,0,1,147,85.67q2.24,3.5,2.24,10.51-.2,7.78-2.53,11.29A9.93,9.93,0,0,1,141.4,111.84Z" transform="translate(-1.99 -2.98)" style="fill:#fff"/><path d="M101.21,70.14h-7v46.76a5.46,5.46,0,0,0,1.95,4.21,6.72,6.72,0,0,0,4.67,1.76h7V76.75a6.64,6.64,0,0,0-6.62-6.62Z" transform="translate(-1.99 -2.98)" style="fill:#fff"/><path d="M108.21,60a5.12,5.12,0,0,0-2-3.63,7,7,0,0,0-4.71-1.68H94.46v5.55h0v.22a4.49,4.49,0,0,0,2,3.65,7.41,7.41,0,0,0,4.7,1.53h7.06V60Z" transform="translate(-1.99 -2.98)" style="fill:#fff"/><path d="M333.73,113.7a6.07,6.07,0,0,0-4.45-1.86h-2.15l-.86-.05q-3.9,0-3.89-3.31V85.79h10.25V80.5a6.38,6.38,0,0,0-1.95-4.67,6.16,6.16,0,0,0-4.48-1.95h-3.83V61.57a6.38,6.38,0,0,0-1.95-4.67A6.16,6.16,0,0,0,316,55h-7v57.22c0,6,2.27,10.76,7.28,10.76h19.16l.2-4.78A6,6,0,0,0,333.73,113.7Z" transform="translate(-1.99 -2.98)" style="fill:#fff"/><path d="M178.34,55c-5.06,0-7.35,4.79-7.35,10.75v57.22h7.08a6.25,6.25,0,0,0,4.52-1.95,6.37,6.37,0,0,0,2-4.67V85.72h3.72a6.19,6.19,0,0,0,4.48-1.92,6.26,6.26,0,0,0,1.95-4.61V74H184.54V69.41q0-3.31,3.93-3.31l3.07-.05a6.15,6.15,0,0,0,4.5-1.86,6,6,0,0,0,1.88-4.45V55Z" transform="translate(-1.99 -2.98)" style="fill:#fff"/></svg>