<svg xmlns="http://www.w3.org/2000/svg" viewBox="0 0 279.08 83.81"><title>logo-nico</title><path d="M163.27,61a17.92,17.92,0,0,1-5.44-8.79,40.5,40.5,0,0,1-1.63-11.5A36.38,36.38,0,0,1,157.56,31a20.17,20.17,0,0,1,4.26-8.15A18.8,18.8,0,0,1,174,16.38a27.91,27.91,0,0,1,13.41,1.18A18.47,18.47,0,0,1,197.5,27a30.07,30.07,0,0,1,3.08,13.95,34.5,34.5,0,0,1-1.27,10A25.65,25.65,0,0,1,196.06,58,18.12,18.12,0,0,1,185,65.38a24.66,24.66,0,0,1-12,.27A21.07,21.07,0,0,1,163.27,61ZM172,29.15q-3.8,4.17-3.44,12.41t3.08,11.5a8.14,8.14,0,0,0,3.8,2.45,8.67,8.67,0,0,0,5.52.18,9.25,9.25,0,0,0,5-4.08q2.18-3.26,2.36-10.51,0-6.52-2.08-9.78a9.42,9.42,0,0,0-4.8-4.17,8.79,8.79,0,0,0-5.44-.09A9.41,9.41,0,0,0,172,29.15Z" transform="translate(-3.33 -2.81)" style="fill:#fff"/><path d="M214.19,61a17.92,17.92,0,0,1-5.43-8.79,40.4,40.4,0,0,1-1.63-11.5A36.38,36.38,0,0,1,208.48,31a20.17,20.17,0,0,1,4.26-8.15,18.8,18.8,0,0,1,12.14-6.43,27.91,27.91,0,0,1,13.41,1.18A18.48,18.48,0,0,1,248.42,27a30.09,30.09,0,0,1,3.08,13.95,34.54,34.54,0,0,1-1.27,10A25.65,25.65,0,0,1,247,58a18.11,18.11,0,0,1-11,7.43,24.66,24.66,0,0,1-12,.27A21.08,21.08,0,0,1,214.19,61Zm8.7-31.88q-3.8,4.17-3.44,12.41t3.08,11.5a8.14,8.14,0,0,0,3.8,2.45,8.67,8.67,0,0,0,5.53.18,9.26,9.26,0,0,0,5-4.08q2.17-3.26,2.36-10.51,0-6.52-2.08-9.78a9.42,9.42,0,0,0-4.8-4.17,8.79,8.79,0,0,0-5.44-.09A9.42,9.42,0,0,0,222.88,29.15Z" transform="translate(-3.33 -2.81)" style="fill:#fff"/><path d="M121.31,41.25a30.06,30.06,0,0,0-3.08-13.95,18.47,18.47,0,0,0-10.14-9.42A27.93,27.93,0,0,0,94.68,16.7a18.81,18.81,0,0,0-12.14,6.43,20.17,20.17,0,0,0-4.26,8.15,36.41,36.41,0,0,0-1.36,9.78,40.5,40.5,0,0,0,1.63,11.5A17.92,17.92,0,0,0,84,61.36,21.08,21.08,0,0,0,93.68,66a24.66,24.66,0,0,0,12-.27,18.15,18.15,0,0,0,3.05-1,13.59,13.59,0,0,1-2.69,7.38,9.84,9.84,0,0,1-5.43,3.53A10.09,10.09,0,0,1,90.24,71H77q4,15.58,20.65,15.58A30,30,0,0,0,113.79,82q7.43-4.62,7.43-17.3V44.17C121.28,43.23,121.31,42.26,121.31,41.25ZM101.65,56a8.67,8.67,0,0,1-5.52-.18,8.14,8.14,0,0,1-3.8-2.45q-2.72-3.26-3.08-11.5t3.44-12.41a9.43,9.43,0,0,1,4-2.08,8.81,8.81,0,0,1,5.44.09,9.42,9.42,0,0,1,4.8,4.17Q109,34.91,109,41.43q-.18,7.24-2.36,10.51A9.25,9.25,0,0,1,101.65,56Z" transform="translate(-3.33 -2.81)" style="fill:#fff"/><path d="M64.24,17.19H57.72V60.72a5.08,5.08,0,0,0,1.81,3.91,6.25,6.25,0,0,0,4.34,1.64H70.4V23.35a6.18,6.18,0,0,0-6.16-6.16Z" transform="translate(-3.33 -2.81)" style="fill:#fff"/><path d="M70.76,7.75a4.76,4.76,0,0,0-1.82-3.38,6.53,6.53,0,0,0-4.39-1.56H58V8h0v.21a4.18,4.18,0,0,0,1.83,3.4A6.9,6.9,0,0,0,64.21,13h6.57V7.75Z" transform="translate(-3.33 -2.81)" style="fill:#fff"/><path d="M3.33,66.28V9.73A6.38,6.38,0,0,1,5.25,5,6.38,6.38,0,0,1,9.94,3.12H28.07q9.73,0,14.87,4,5.14,4.41,5.14,11.93a15.24,15.24,0,0,1-2,8.08,14.12,14.12,0,0,1-5.69,5,16.6,16.6,0,0,1,7.35,5.69A16,16,0,0,1,50.11,47q0,9.18-5.87,14.32-6.06,5-17.08,5ZM15.81,27.54h9.87q4.77,0,7-1.65a6,6,0,0,0,2.2-5.14,6,6,0,0,0-2.2-5.14q-1.84-1.47-7.16-1.47H15.81Zm0,27.36H26.24q5.14,0,7.9-2Q36.7,51,36.7,46.63t-2.57-6.43q-2.39-1.84-8.08-1.84H15.81Z" transform="translate(-3.33 -2.81)" style="fill:#fff"/><path d="M280.68,57.74A5.65,5.65,0,0,0,276.53,56h-2l-.8,0q-3.63,0-3.62-3.08V31.77h9.54V26.84a5.94,5.94,0,0,0-1.81-4.35,5.74,5.74,0,0,0-4.17-1.81h-3.56V9.22a5.94,5.94,0,0,0-1.81-4.35,5.74,5.74,0,0,0-4.17-1.81h-6.52V56.32c0,5.55,2.11,10,6.78,10h17.83l.19-4.45A5.63,5.63,0,0,0,280.68,57.74Z" transform="translate(-3.33 -2.81)" style="fill:#fff"/><path d="M136,3.06c-4.71,0-6.84,4.46-6.84,10V66.33h6.59A5.82,5.82,0,0,0,140,64.52a5.93,5.93,0,0,0,1.83-4.35V31.7h3.47a5.77,5.77,0,0,0,4.17-1.79,5.83,5.83,0,0,0,1.81-4.29V20.75h-9.44V16.51q0-3.08,3.66-3.08l2.86,0a5.72,5.72,0,0,0,4.18-1.74,5.62,5.62,0,0,0,1.75-4.14V3.06Z" transform="translate(-3.33 -2.81)" style="fill:#fff"/></svg>