<?xml version="1.0" encoding="utf-8"?>
<!-- Generator: Adobe Illustrator 19.0.0, SVG Export Plug-In . SVG Version: 6.00 Build 0)  -->
<!DOCTYPE svg PUBLIC "-//W3C//DTD SVG 1.1//EN" "http://www.w3.org/Graphics/SVG/1.1/DTD/svg11.dtd">
<svg version="1.1" id="Layer_1" xmlns="http://www.w3.org/2000/svg" xmlns:xlink="http://www.w3.org/1999/xlink" x="0px" y="0px"
	 viewBox="0 0 438.4 562" enable-background="new 0 0 438.4 562" xml:space="preserve">
<g id="XMLID_129_">
	<path id="XMLID_154_" fill="#FFFFFF" d="M278.8,350.7c-4,0-8-0.3-12-1c-18.1-2.9-32.9-12.1-41.7-26c-1.1,1.5-2.1,3-3.3,4.4
		c-12.7,15.5-30.2,23-52,22.4c-32.7-1-55.2-19.8-65-54.2c-1.3-4.6-2.2-9.2-3.1-14.1c-0.4-2.2-0.9-4.4-1.3-6.7l5.5-1.2
		c0.5,2.3,0.9,4.6,1.4,6.8c0.9,4.8,1.8,9.2,3,13.6c9.2,32.3,29.3,49.2,59.7,50.1c20.3,0.6,35.8-6,47.5-20.3c1.2-1.5,2.3-3,3.5-4.7
		c0.6-0.8,1.2-1.7,1.8-2.6l2.2-3l2.3,2.9c0.2,0.3,0.4,0.6,0.6,0.8c0.5,0.5,0.9,1.1,1.3,1.7c7.8,13,21.5,21.7,38.4,24.5
		c18.2,2.9,37.6-1.8,49.5-12c11.4-9.8,19.1-23,23.6-40.3c1-3.8,1.7-7.7,2.4-11.7c0.3-1.9,0.7-3.8,1.1-5.8l5.5,1.1
		c-0.4,1.9-0.7,3.8-1,5.7c-0.7,4.2-1.5,8.2-2.5,12.2c-4.8,18.5-13.1,32.7-25.4,43.2C310.2,345.6,294.8,350.7,278.8,350.7z
		 M278.2,329.4c-4,0-7.9-0.5-11.7-1.4c-12.9-3.2-22.7-11.6-27.4-23.6c-3.6-9.2-5.5-17.8-5.6-25.5c-0.4-41.6-0.3-83.2-0.2-119l5.6,0
		c-0.1,35.8-0.2,77.4,0.2,119c0.1,7,1.8,15.1,5.2,23.5c5.2,13.2,15.7,18.3,23.5,20.2c12.6,3.1,27.2,0.3,35.5-6.9
		c13-11.2,16.7-26.3,18.8-41l5.6,0.8c-2.1,15-6.3,32-20.7,44.5C300,326,289.1,329.4,278.2,329.4z M173,329.4c-5.1,0-10.5-0.7-16-2.2
		c-10.7-2.9-19.4-10.3-25.6-21.9c-4.9-9.1-7.8-19-8.7-30.3l5.6-0.5c0.9,10.5,3.5,19.7,8.1,28.1c5.6,10.3,12.8,16.6,22.1,19.1
		c13.5,3.6,26.6,2.2,35.7-4c8.9-6,14.2-16,15.8-29.8c1.6-13.8,1.5-28.2,1.4-42.1c0-4.7-0.1-9.5-0.1-14.3c0.1-19.7,0.1-39.7,0.1-59
		l0-11.7l5.6,0l0,11.7c0,19.3,0,39.4-0.1,59c0,4.7,0,9.5,0.1,14.2c0.1,14.1,0.3,28.6-1.4,42.8c-1.8,15.3-8.1,27-18.3,33.8
		C190.5,327,182.2,329.4,173,329.4z"></path>
	<path id="XMLID_151_" fill="#FFFFFF" d="M350.1,478.2c-0.5,0-0.9-0.1-1.4-0.4c-1.4-0.8-1.9-2.5-1.1-3.8c0.1-0.2,5.3-9.7,8.8-23.3
		c-31.3-6.3-45.9-26.1-47.8-29l-0.1-0.1c-20.4-33.2-4.3-53.6-3.6-54.5l0.8-1l1.3,0c33-0.2,47,23,48.1,24.9
		c9.7,14.8,12.5,33.8,8.2,55.1c7.8,1.1,16.6,1.3,26.4,0.1c1.5-0.2,2.9,0.9,3.1,2.5c0.2,1.5-0.9,2.9-2.5,3.1
		c-10.6,1.3-20,1.1-28.3-0.1c-3.7,14.5-9.3,24.6-9.5,25C352,477.6,351.1,478.2,350.1,478.2z M313.3,418.6
		c1.1,1.6,14.8,20.5,44.5,26.6c3.2-15.5,3.4-34.6-7.3-51.1l-0.1-0.2c-0.5-0.9-12.6-21.7-41.8-22.1
		C305.8,376,297.4,392.7,313.3,418.6z"></path>
	<path id="XMLID_150_" fill="#FFFFFF" d="M318.1,381.3c2-1.4,4.8-0.9,6.2,1.1c1.4,2,0.9,4.8-1.1,6.2c-2,1.4-4.8,0.9-6.2-1.2
		C315.5,385.5,316,382.7,318.1,381.3z"></path>
	<path id="XMLID_147_" fill="#FFFFFF" d="M97.5,481.1c-1,0-1.9-0.5-2.4-1.4c-5.4-9.1-9.1-17.8-11.4-25.9
		c-14.7,2.5-26.2,1.5-26.7,1.4c-1.5-0.1-2.7-1.5-2.6-3.1c0.1-1.5,1.5-2.7,3.1-2.6c0.2,0,11,0.9,24.8-1.4
		c-6.9-31.1,5.3-52.5,7.1-55.5l0.1-0.1c22.1-32.1,47.3-25.7,48.3-25.4l1.3,0.3l0.5,1.2c13.6,30.1-2,52.3-3.3,54.1
		c-9.6,14.9-25.9,25.2-47,29.8c2.2,7.6,5.6,15.7,10.6,24.2c0.8,1.3,0.4,3.1-1,3.9C98.5,481,98,481.1,97.5,481.1z M94.2,395.8
		c-1,1.6-12.7,21.9-6.2,51.4c15.4-3.4,33.1-10.9,43.7-27.4l0.1-0.2c0.6-0.8,14.7-20.3,3.3-47.2C130.1,371.7,111.4,370.8,94.2,395.8z
		"></path>
	<path id="XMLID_146_" fill="#FFFFFF" d="M127.8,385.1c2.1,1.3,2.8,4,1.5,6.1c-1.3,2.1-4,2.8-6.2,1.5c-2.1-1.3-2.8-4-1.5-6.2
		C122.9,384.4,125.7,383.8,127.8,385.1z"></path>
	<path id="XMLID_143_" fill="#FFFFFF" d="M236.1,457.2c-0.5,0-0.9-0.1-1.4-0.3c-5.8-3.2-12.5-7.6-18.9-13.6
		c-9.5,7.9-18,12-18.4,12.2c-1.4,0.7-3.1,0.1-3.8-1.3c-0.7-1.4-0.1-3.1,1.3-3.8c0.2-0.1,8.1-3.9,16.8-11.1
		c-5.2-5.6-9.9-12.4-13.3-20.5c-4.8-11.5-4.9-20.5-4.9-22.2l0-0.2c2.3-32.7,23.3-38.8,24.2-39l1.3-0.4l1.1,0.8
		c22.6,15.9,20.9,38.6,20.7,40.6c-0.6,14.7-7.8,28.9-20.9,41.2c4.7,4.4,10.4,8.6,17.3,12.4c1.4,0.7,1.9,2.5,1.1,3.8
		C238,456.7,237.1,457.2,236.1,457.2z M199.3,396.7c0,1.6,0.1,20.6,16.8,38.8c9.4-8.8,18.6-21.5,19.3-37.5l0-0.2
		c0.1-0.8,1.9-20.3-17.1-34.6C214.1,364.9,201,372.2,199.3,396.7z"></path>
	<path id="XMLID_142_" fill="#FFFFFF" d="M218.9,375.9c2.1,0,3.7,1.7,3.7,3.8c0,2.1-1.7,3.7-3.8,3.7c-2.1,0-3.7-1.7-3.7-3.8
		C215.1,377.5,216.8,375.9,218.9,375.9z"></path>
	<path id="XMLID_141_" fill="#FFFFFF" d="M125.3,281.1c-1.3,0-2.4-0.9-2.7-2.1c-0.4-1.5,0.5-3,2.1-3.4c14.2-3.5,24.1-16.2,24.1-30.8
		c0-17.5-14.2-31.7-31.7-31.7s-31.7,14.2-31.7,31.7c0,12.4,7.3,23.7,18.5,28.8c1.4,0.7,2,2.3,1.4,3.7c-0.7,1.4-2.3,2-3.7,1.4
		c-13.2-6.1-21.8-19.4-21.8-34c0-20.6,16.8-37.4,37.4-37.4c20.6,0,37.4,16.8,37.4,37.4c0,17.2-11.7,32.1-28.4,36.3
		C125.8,281,125.6,281.1,125.3,281.1z"></path>
	<path id="XMLID_140_" fill="#FFFFFF" d="M346.5,280.1c-1.3,0-2.4-0.8-2.7-2.1c-0.4-1.5,0.5-3,2-3.4c12.8-3.3,20.5-14.8,20.5-30.9
		c0-17.5-14.2-31.7-31.7-31.7c-17.5,0-31.7,14.2-31.7,31.7c0,16,8.3,27.2,22.1,30c1.5,0.3,2.5,1.8,2.2,3.3c-0.3,1.5-1.8,2.5-3.3,2.2
		c-16.4-3.4-26.6-17-26.6-35.5c0-20.6,16.8-37.4,37.4-37.4c20.6,0,37.4,16.8,37.4,37.4c0,18.6-9.5,32.5-24.7,36.4
		C346.9,280,346.7,280.1,346.5,280.1z"></path>
	<path id="XMLID_131_" fill-rule="evenodd" clip-rule="evenodd" fill="#FFFFFF" d="M218.8,164.1c-13.9,1.8-25.2,6.7-32.1,18.3
		c-1.8,3-3.7,4.6-7.3,4.1c-7.9-1.2-15.9-2.5-23.8-3.6c-4.1-0.6-5.4-2.6-5.1-6.5c2-21.5,9.5-40.7,25.2-56.5c2.6-2.6,3.5-4.8,2.9-8.7
		c-5-36.2,7.8-65.3,38.3-87c4.2-3,6.9-5.8,6-11.1c-0.4-2.8-0.3-5.7,0.1-8.5c0.2-1.2,1.7-2.3,2.7-3.4c1.1,1.2,2.9,2.3,3,3.5
		c0.4,3.6,0.4,7.3,0.1,10.9c-0.3,3.2,0.9,5.1,3.7,7c28.8,19,42.4,45.4,41.9,78.8c0,0.8,0.1,1.7-0.1,2.4c-3.6,9.6,1,16.2,7.2,23.4
		c12.2,14.2,17.5,31.2,18.9,49.5c0.3,4.1-1.2,6-5.1,6.5c-8.6,1.1-17.2,2.1-25.9,3.3c-3.8,0.5-6-1.2-7.8-4.3
		c-6-10.5-16.1-15.3-28.6-17.9 M228.8,59.8c0,19.3,0,37.8,0,56.3c0,0.9,0.2,2.3,0.7,2.5c4.4,1.5,3.2,5,3.3,8c0.1,3.3,0,6.6,0,10.2
		c8.1,0,15.7,0.1,23.2-0.1c1.1,0,2.7-1.2,3.2-2.2c11.9-23.9,12.5-48.1,1.2-72.3c-0.5-1-2-2.3-3-2.4
		C248.1,59.8,238.7,59.8,228.8,59.8z M222.8,59.8c-9.8,0-19-0.1-28.2,0.1c-1.2,0-2.9,1.3-3.4,2.5c-11.2,24.1-10.7,48.1,1,71.9
		c0.5,1,1.6,2.5,2.5,2.5c8,0.2,16,0.1,23.9,0.1c0.1-1.4,0.1-2.1,0.2-2.7c1.2-5.5-3.1-12.1,3.9-16.3c0.3-0.2,0.2-1.2,0.2-1.8
		C222.8,97.6,222.8,79.1,222.8,59.8z M270.5,123.1c-4.9,15.3-13.2,27.7-24.7,38.9c9.4,4.1,16.6,9.6,21.4,17.7c0.3,0.5,1.3,1,2,1
		c8.6,0.3,17-0.5,25.3-3.4C292.8,156.8,285.6,138.9,270.5,123.1z M181,122.5c-15.5,16-23.1,34.1-24.5,55.3c7.2,1,13.7,1.9,20.2,2.9
		c2.7,0.4,4.3-0.5,6.1-2.7c3.3-4.1,7.1-7.8,11.3-11.1c3-2.4,6.9-4,10.7-6.1C193.6,149.8,185.8,137.5,181,122.5z M255.7,53.9
		c-6-9.8-13.2-17.7-22.3-23.8c-9.4-6.3-5.6-6.4-15.3,0.1c-9,6.1-16.3,13.9-22.1,23.7C216.1,53.9,235.5,53.9,255.7,53.9z M233.1,159
		c2.6,0,5.7,0.9,6.8-0.2c5.1-4.7,9.7-9.9,15.2-15.7c-8.5,0-15.2,0-22.1,0C233.1,148.4,233.1,153.2,233.1,159z M198.4,142.9
		c-0.3,0.4-0.6,0.7-1,1.1c4.3,4.6,8.5,9.5,13,13.9c2.5,2.4,8.1,1,8.3-1.8c0.2-4.3,0.1-8.7,0.1-13.2
		C211.5,142.9,204.9,142.9,198.4,142.9z"></path>
	<path id="XMLID_130_" fill="#FFFFFF" d="M221.9,560.8c-57.8,0-112.2-22.5-153.1-63.4C27.9,456.5,5.4,402.1,5.4,344.3
		C5.4,258.3,56.3,180.5,135,146c2-0.9,4.4,0,5.3,2.1c0.9,2,0,4.4-2.1,5.3c-75.8,33.3-124.8,108.2-124.8,191
		c0,115,93.5,208.5,208.5,208.5c115,0,208.5-93.5,208.5-208.5c0-39.9-11.3-78.7-32.7-112.1c-20.8-32.6-50.2-58.7-84.9-75.5
		c-2-1-2.8-3.4-1.9-5.3c1-2,3.4-2.8,5.3-1.9c36,17.5,66.5,44.6,88.1,78.4c22.2,34.7,33.9,75,33.9,116.4
		c0,57.8-22.5,112.2-63.4,153.1C334.1,538.2,279.7,560.8,221.9,560.8z"></path>
</g>
</svg>
