<?xml version="1.0" encoding="UTF-8" standalone="no"?>
<!-- Generator: Adobe Illustrator 19.0.0, SVG Export Plug-In . SVG Version: 6.00 Build 0)  -->
<!DOCTYPE svg  PUBLIC '-//W3C//DTD SVG 1.1//EN'  'http://www.w3.org/Graphics/SVG/1.1/DTD/svg11.dtd'>
<svg id="Layer_1" xmlns="http://www.w3.org/2000/svg" xml:space="preserve" viewBox="0 0 438.4 562" version="1.1" y="0px" x="0px" xmlns:xlink="http://www.w3.org/1999/xlink" enable-background="new 0 0 438.4 562">
<g id="XMLID_129_" fill="#fff">
	<path id="XMLID_154_" d="m278.8 350.7c-4 0-8-0.3-12-1-18.1-2.9-32.9-12.1-41.7-26-1.1 1.5-2.1 3-3.3 4.4-12.7 15.5-30.2 23-52 22.4-32.7-1-55.2-19.8-65-54.2-1.3-4.6-2.2-9.2-3.1-14.1-0.4-2.2-0.9-4.4-1.3-6.7l5.5-1.2c0.5 2.3 0.9 4.6 1.4 6.8 0.9 4.8 1.8 9.2 3 13.6 9.2 32.3 29.3 49.2 59.7 50.1 20.3 0.6 35.8-6 47.5-20.3 1.2-1.5 2.3-3 3.5-4.7 0.6-0.8 1.2-1.7 1.8-2.6l2.2-3 2.3 2.9c0.2 0.3 0.4 0.6 0.6 0.8 0.5 0.5 0.9 1.1 1.3 1.7 7.8 13 21.5 21.7 38.4 24.5 18.2 2.9 37.6-1.8 49.5-12 11.4-9.8 19.1-23 23.6-40.3 1-3.8 1.7-7.7 2.4-11.7 0.3-1.9 0.7-3.8 1.1-5.8l5.5 1.1c-0.4 1.9-0.7 3.8-1 5.7-0.7 4.2-1.5 8.2-2.5 12.2-4.8 18.5-13.1 32.7-25.4 43.2-10.6 9.1-26 14.2-42 14.2zm-0.6-21.3c-4 0-7.9-0.5-11.7-1.4-12.9-3.2-22.7-11.6-27.4-23.6-3.6-9.2-5.5-17.8-5.6-25.5-0.4-41.6-0.3-83.2-0.2-119h5.6c-0.1 35.8-0.2 77.4 0.2 119 0.1 7 1.8 15.1 5.2 23.5 5.2 13.2 15.7 18.3 23.5 20.2 12.6 3.1 27.2 0.3 35.5-6.9 13-11.2 16.7-26.3 18.8-41l5.6 0.8c-2.1 15-6.3 32-20.7 44.5-7 6-17.9 9.4-28.8 9.4zm-105.2 0c-5.1 0-10.5-0.7-16-2.2-10.7-2.9-19.4-10.3-25.6-21.9-4.9-9.1-7.8-19-8.7-30.3l5.6-0.5c0.9 10.5 3.5 19.7 8.1 28.1 5.6 10.3 12.8 16.6 22.1 19.1 13.5 3.6 26.6 2.2 35.7-4 8.9-6 14.2-16 15.8-29.8s1.5-28.2 1.4-42.1c0-4.7-0.1-9.5-0.1-14.3 0.1-19.7 0.1-39.7 0.1-59v-11.7h5.6v11.7c0 19.3 0 39.4-0.1 59 0 4.7 0 9.5 0.1 14.2 0.1 14.1 0.3 28.6-1.4 42.8-1.8 15.3-8.1 27-18.3 33.8-6.8 4.7-15.1 7.1-24.3 7.1z"/>
	<path id="XMLID_151_" d="m350.1 478.2c-0.5 0-0.9-0.1-1.4-0.4-1.4-0.8-1.9-2.5-1.1-3.8 0.1-0.2 5.3-9.7 8.8-23.3-31.3-6.3-45.9-26.1-47.8-29l-0.1-0.1c-20.4-33.2-4.3-53.6-3.6-54.5l0.8-1h1.3c33-0.2 47 23 48.1 24.9 9.7 14.8 12.5 33.8 8.2 55.1 7.8 1.1 16.6 1.3 26.4 0.1 1.5-0.2 2.9 0.9 3.1 2.5 0.2 1.5-0.9 2.9-2.5 3.1-10.6 1.3-20 1.1-28.3-0.1-3.7 14.5-9.3 24.6-9.5 25-0.5 0.9-1.4 1.5-2.4 1.5zm-36.8-59.6c1.1 1.6 14.8 20.5 44.5 26.6 3.2-15.5 3.4-34.6-7.3-51.1l-0.1-0.2c-0.5-0.9-12.6-21.7-41.8-22.1-2.8 4.2-11.2 20.9 4.7 46.8z"/>
	<path id="XMLID_150_" d="m318.1 381.3c2-1.4 4.8-0.9 6.2 1.1s0.9 4.8-1.1 6.2-4.8 0.9-6.2-1.2c-1.5-1.9-1-4.7 1.1-6.1z"/>
	<path id="XMLID_147_" d="m97.5 481.1c-1 0-1.9-0.5-2.4-1.4-5.4-9.1-9.1-17.8-11.4-25.9-14.7 2.5-26.2 1.5-26.7 1.4-1.5-0.1-2.7-1.5-2.6-3.1 0.1-1.5 1.5-2.7 3.1-2.6 0.2 0 11 0.9 24.8-1.4-6.9-31.1 5.3-52.5 7.1-55.5l0.1-0.1c22.1-32.1 47.3-25.7 48.3-25.4l1.3 0.3 0.5 1.2c13.6 30.1-2 52.3-3.3 54.1-9.6 14.9-25.9 25.2-47 29.8 2.2 7.6 5.6 15.7 10.6 24.2 0.8 1.3 0.4 3.1-1 3.9-0.4 0.4-0.9 0.5-1.4 0.5zm-3.3-85.3c-1 1.6-12.7 21.9-6.2 51.4 15.4-3.4 33.1-10.9 43.7-27.4l0.1-0.2c0.6-0.8 14.7-20.3 3.3-47.2-5-0.7-23.7-1.6-40.9 23.4z"/>
	<path id="XMLID_146_" d="m127.8 385.1c2.1 1.3 2.8 4 1.5 6.1s-4 2.8-6.2 1.5c-2.1-1.3-2.8-4-1.5-6.2 1.3-2.1 4.1-2.7 6.2-1.4z"/>
	<path id="XMLID_143_" d="m236.1 457.2c-0.5 0-0.9-0.1-1.4-0.3-5.8-3.2-12.5-7.6-18.9-13.6-9.5 7.9-18 12-18.4 12.2-1.4 0.7-3.1 0.1-3.8-1.3s-0.1-3.1 1.3-3.8c0.2-0.1 8.1-3.9 16.8-11.1-5.2-5.6-9.9-12.4-13.3-20.5-4.8-11.5-4.9-20.5-4.9-22.2v-0.2c2.3-32.7 23.3-38.8 24.2-39l1.3-0.4 1.1 0.8c22.6 15.9 20.9 38.6 20.7 40.6-0.6 14.7-7.8 28.9-20.9 41.2 4.7 4.4 10.4 8.6 17.3 12.4 1.4 0.7 1.9 2.5 1.1 3.8-0.3 0.9-1.2 1.4-2.2 1.4zm-36.8-60.5c0 1.6 0.1 20.6 16.8 38.8 9.4-8.8 18.6-21.5 19.3-37.5v-0.2c0.1-0.8 1.9-20.3-17.1-34.6-4.2 1.7-17.3 9-19 33.5z"/>
	<path id="XMLID_142_" d="m218.9 375.9c2.1 0 3.7 1.7 3.7 3.8s-1.7 3.7-3.8 3.7-3.7-1.7-3.7-3.8 1.7-3.7 3.8-3.7z"/>
	<path id="XMLID_141_" d="m125.3 281.1c-1.3 0-2.4-0.9-2.7-2.1-0.4-1.5 0.5-3 2.1-3.4 14.2-3.5 24.1-16.2 24.1-30.8 0-17.5-14.2-31.7-31.7-31.7s-31.7 14.2-31.7 31.7c0 12.4 7.3 23.7 18.5 28.8 1.4 0.7 2 2.3 1.4 3.7-0.7 1.4-2.3 2-3.7 1.4-13.2-6.1-21.8-19.4-21.8-34 0-20.6 16.8-37.4 37.4-37.4s37.4 16.8 37.4 37.4c0 17.2-11.7 32.1-28.4 36.3-0.4 0-0.6 0.1-0.9 0.1z"/>
	<path id="XMLID_140_" d="m346.5 280.1c-1.3 0-2.4-0.8-2.7-2.1-0.4-1.5 0.5-3 2-3.4 12.8-3.3 20.5-14.8 20.5-30.9 0-17.5-14.2-31.7-31.7-31.7s-31.7 14.2-31.7 31.7c0 16 8.3 27.2 22.1 30 1.5 0.3 2.5 1.8 2.2 3.3s-1.8 2.5-3.3 2.2c-16.4-3.4-26.6-17-26.6-35.5 0-20.6 16.8-37.4 37.4-37.4s37.4 16.8 37.4 37.4c0 18.6-9.5 32.5-24.7 36.4-0.5-0.1-0.7 0-0.9 0z"/>
	<path id="XMLID_131_" d="m218.8 164.1c-13.9 1.8-25.2 6.7-32.1 18.3-1.8 3-3.7 4.6-7.3 4.1-7.9-1.2-15.9-2.5-23.8-3.6-4.1-0.6-5.4-2.6-5.1-6.5 2-21.5 9.5-40.7 25.2-56.5 2.6-2.6 3.5-4.8 2.9-8.7-5-36.2 7.8-65.3 38.3-87 4.2-3 6.9-5.8 6-11.1-0.4-2.8-0.3-5.7 0.1-8.5 0.2-1.2 1.7-2.3 2.7-3.4 1.1 1.2 2.9 2.3 3 3.5 0.4 3.6 0.4 7.3 0.1 10.9-0.3 3.2 0.9 5.1 3.7 7 28.8 19 42.4 45.4 41.9 78.8 0 0.8 0.1 1.7-0.1 2.4-3.6 9.6 1 16.2 7.2 23.4 12.2 14.2 17.5 31.2 18.9 49.5 0.3 4.1-1.2 6-5.1 6.5-8.6 1.1-17.2 2.1-25.9 3.3-3.8 0.5-6-1.2-7.8-4.3-6-10.5-16.1-15.3-28.6-17.9m-4.2-104.5v56.3c0 0.9 0.2 2.3 0.7 2.5 4.4 1.5 3.2 5 3.3 8 0.1 3.3 0 6.6 0 10.2 8.1 0 15.7 0.1 23.2-0.1 1.1 0 2.7-1.2 3.2-2.2 11.9-23.9 12.5-48.1 1.2-72.3-0.5-1-2-2.3-3-2.4h-28.6zm-6 0c-9.8 0-19-0.1-28.2 0.1-1.2 0-2.9 1.3-3.4 2.5-11.2 24.1-10.7 48.1 1 71.9 0.5 1 1.6 2.5 2.5 2.5 8 0.2 16 0.1 23.9 0.1 0.1-1.4 0.1-2.1 0.2-2.7 1.2-5.5-3.1-12.1 3.9-16.3 0.3-0.2 0.2-1.2 0.2-1.8-0.1-18.5-0.1-37-0.1-56.3zm47.7 63.3c-4.9 15.3-13.2 27.7-24.7 38.9 9.4 4.1 16.6 9.6 21.4 17.7 0.3 0.5 1.3 1 2 1 8.6 0.3 17-0.5 25.3-3.4-1.7-20.5-8.9-38.4-24-54.2zm-89.5-0.6c-15.5 16-23.1 34.1-24.5 55.3 7.2 1 13.7 1.9 20.2 2.9 2.7 0.4 4.3-0.5 6.1-2.7 3.3-4.1 7.1-7.8 11.3-11.1 3-2.4 6.9-4 10.7-6.1-11.2-11-19-23.3-23.8-38.3zm74.7-68.6c-6-9.8-13.2-17.7-22.3-23.8-9.4-6.3-5.6-6.4-15.3 0.1-9 6.1-16.3 13.9-22.1 23.7h59.7zm-22.6 105.1c2.6 0 5.7 0.9 6.8-0.2 5.1-4.7 9.7-9.9 15.2-15.7h-22.1c0.1 5.3 0.1 10.1 0.1 15.9zm-34.7-16.1c-0.3 0.4-0.6 0.7-1 1.1 4.3 4.6 8.5 9.5 13 13.9 2.5 2.4 8.1 1 8.3-1.8 0.2-4.3 0.1-8.7 0.1-13.2h-20.4z" clip-rule="evenodd" fill-rule="evenodd"/>
	<path id="XMLID_130_" d="m221.9 560.8c-57.8 0-112.2-22.5-153.1-63.4s-63.4-95.3-63.4-153.1c0-86 50.9-163.8 129.6-198.3 2-0.9 4.4 0 5.3 2.1 0.9 2 0 4.4-2.1 5.3-75.8 33.3-124.8 108.2-124.8 191 0 115 93.5 208.5 208.5 208.5s208.5-93.5 208.5-208.5c0-39.9-11.3-78.7-32.7-112.1-20.8-32.6-50.2-58.7-84.9-75.5-2-1-2.8-3.4-1.9-5.3 1-2 3.4-2.8 5.3-1.9 36 17.5 66.5 44.6 88.1 78.4 22.2 34.7 33.9 75 33.9 116.4 0 57.8-22.5 112.2-63.4 153.1-40.7 40.7-95.1 63.3-152.9 63.3z"/>
</g>
</svg>
