<?xml version="1.0" encoding="utf-8"?>
<!-- Generator: Adobe Illustrator 19.0.0, SVG Export Plug-In . SVG Version: 6.00 Build 0)  -->
<!DOCTYPE svg PUBLIC "-//W3C//DTD SVG 1.1//EN" "http://www.w3.org/Graphics/SVG/1.1/DTD/svg11.dtd">
<svg version="1.1" id="Layer_1" xmlns="http://www.w3.org/2000/svg" xmlns:xlink="http://www.w3.org/1999/xlink" x="0px" y="0px"
	 viewBox="0 0 616 148.4" style="enable-background:new 0 0 616 148.4;" xml:space="preserve">
<style type="text/css">
	.st0{fill:#FFFFFF;}
</style>
<path id="XMLID_11_" class="st0" d="M69.4,0H2v148h30v-44h35.4c47.3-1,49.3-44.7,49.3-44.7C120.6,1,69.4,0,69.4,0z M61.3,77H32V30
	h32.3c0,0,23.1,0.6,23.1,25.8C87.5,55.8,85.5,76,61.3,77z"/>
<path id="XMLID_8_" class="st0" d="M224.4,90.3c38.2-5.5,34.1-41.9,34.1-41.9c0.3-41.3-26.8-47.9-42.9-48.4C196-0.5,137,0,137,0v148
	h30V95h28l33.1,53H264L224.4,90.3z M208.8,68.8L166,69.1V27h42.7c0,0,21.5,1,20.2,25.6C228.9,52.6,227.9,68.8,208.8,68.8z"/>
<path id="XMLID_7_" class="st0" d="M284.8,65.2c2,0,29.2-29.2,29.2-29.2l-0.2,112H285L284.8,65.2z"/>
<polygon id="XMLID_6_" class="st0" points="285,29.1 314,0 285,0 "/>
<polygon id="XMLID_5_" class="st0" points="472,0 472,148 500,148 500,50.3 544.9,111.1 586,50 586,148 616,148 616,0 585.8,0 
	544.9,61.7 502.3,-0.2 "/>
<g id="XMLID_2_">
	<path id="XMLID_3_" class="st0" d="M334.5,127l14.6-22.2c15.5,11.7,32.3,17.6,46.9,17.6c14.1,0,22.2-6,22.2-15.5v-0.5
		c0-11.1-15.2-14.9-32-20.1c-21.2-6-44.7-14.6-44.7-42v-0.5c0-27.1,22.5-43.7,51-43.7c17.9,0,37.4,6.2,52.6,16.3l-13,23.3
		c-13.8-8.4-28.5-13.6-40.4-13.6c-12.7,0-20.1,6-20.1,14.4V41c0,10.3,15.5,14.6,32.3,20.1c20.9,6.5,44.5,16,44.5,41.8v0.5
		c0,30.1-23.3,45-53.2,45C374.9,148.4,352.4,141.1,334.5,127z"/>
</g>
</svg>
